<mxfile host="65bd71144e">
    <diagram id="tmudO_DjwZz5z5zYCMsp" name="Page-1">
        <mxGraphModel dx="1357" dy="782" grid="0" gridSize="10" guides="0" tooltips="1" connect="0" arrows="1" fold="1" page="1" pageScale="1" pageWidth="827" pageHeight="1169" background="#000000" math="0" shadow="0">
            <root>
                <object label="" Default="" id="0">
                    <mxCell/>
                </object>
                <mxCell id="1" parent="0"/>
                <mxCell id="2" value="&lt;u&gt;File Structure&lt;/u&gt;" style="text;html=1;fontSize=24;fontStyle=1;verticalAlign=middle;align=center;" vertex="1" parent="1">
                    <mxGeometry x="321" y="32" width="172" height="40" as="geometry"/>
                </mxCell>
                <mxCell id="39" style="edgeStyle=orthogonalEdgeStyle;html=1;strokeColor=#B20000;fontSize=17;strokeWidth=3;flowAnimation=1;fillColor=#e51400;" edge="1" parent="1" source="3">
                    <mxGeometry relative="1" as="geometry">
                        <mxPoint x="94.16432698567712" y="264.06244913736975" as="targetPoint"/>
                    </mxGeometry>
                </mxCell>
                <mxCell id="46" style="edgeStyle=orthogonalEdgeStyle;html=1;strokeColor=#b85450;fontSize=17;curved=1;flowAnimation=1;fillColor=#f8cecc;strokeWidth=3;" edge="1" parent="1" source="3">
                    <mxGeometry relative="1" as="geometry">
                        <mxPoint x="579" y="235" as="targetPoint"/>
                        <Array as="points">
                            <mxPoint x="404" y="178"/>
                            <mxPoint x="579" y="178"/>
                        </Array>
                    </mxGeometry>
                </mxCell>
                <mxCell id="47" style="edgeStyle=orthogonalEdgeStyle;curved=1;html=1;strokeColor=#b85450;fontSize=17;fillColor=#f8cecc;flowAnimation=1;strokeWidth=3;" edge="1" parent="1" source="3">
                    <mxGeometry relative="1" as="geometry">
                        <mxPoint x="564.534647623698" y="128.5" as="targetPoint"/>
                    </mxGeometry>
                </mxCell>
                <mxCell id="3" value="&lt;font style=&quot;font-size: 17px;&quot;&gt;App&lt;/font&gt;.js&amp;nbsp;" style="rounded=0;whiteSpace=wrap;html=1;" vertex="1" parent="1">
                    <mxGeometry x="344" y="106" width="120" height="45" as="geometry"/>
                </mxCell>
                <mxCell id="15" value="Header" style="rounded=1;whiteSpace=wrap;html=1;fontSize=17;" vertex="1" parent="1">
                    <mxGeometry x="57" y="269" width="96" height="39" as="geometry"/>
                </mxCell>
                <mxCell id="16" value="Main" style="rounded=1;whiteSpace=wrap;html=1;fontSize=17;" vertex="1" parent="1">
                    <mxGeometry x="549" y="240" width="96" height="39" as="geometry"/>
                </mxCell>
                <mxCell id="18" value="Loader" style="rounded=1;whiteSpace=wrap;html=1;fontSize=17;" vertex="1" parent="1">
                    <mxGeometry x="477" y="349" width="112" height="30" as="geometry"/>
                </mxCell>
                <mxCell id="20" value="Error" style="rounded=1;whiteSpace=wrap;html=1;fontSize=17;" vertex="1" parent="1">
                    <mxGeometry x="477" y="396" width="112" height="30" as="geometry"/>
                </mxCell>
                <mxCell id="33" style="edgeStyle=orthogonalEdgeStyle;html=1;strokeColor=#d79b00;fontSize=17;flowAnimation=1;ignoreEdge=1;fillColor=#ffe6cc;strokeWidth=2;" edge="1" parent="1" source="21">
                    <mxGeometry relative="1" as="geometry">
                        <mxPoint x="322.8680216471355" y="482.58098347981763" as="targetPoint"/>
                    </mxGeometry>
                </mxCell>
                <mxCell id="21" value="StartScreen" style="rounded=1;whiteSpace=wrap;html=1;fontSize=17;" vertex="1" parent="1">
                    <mxGeometry x="477" y="443" width="112" height="30" as="geometry"/>
                </mxCell>
                <mxCell id="22" value="Progress" style="rounded=1;whiteSpace=wrap;html=1;fontSize=17;" vertex="1" parent="1">
                    <mxGeometry x="273" y="484" width="112" height="30" as="geometry"/>
                </mxCell>
                <mxCell id="24" value="Question" style="rounded=1;whiteSpace=wrap;html=1;fontSize=17;" vertex="1" parent="1">
                    <mxGeometry x="273" y="529" width="112" height="30" as="geometry"/>
                </mxCell>
                <mxCell id="32" style="edgeStyle=orthogonalEdgeStyle;html=1;strokeColor=#d79b00;fontSize=17;flowAnimation=1;strokeWidth=2;fillColor=#ffe6cc;" edge="1" parent="1" source="25">
                    <mxGeometry relative="1" as="geometry">
                        <mxPoint x="148.79392496744788" y="609.4328308105469" as="targetPoint"/>
                    </mxGeometry>
                </mxCell>
                <mxCell id="25" value="Footer" style="rounded=1;whiteSpace=wrap;html=1;fontSize=17;" vertex="1" parent="1">
                    <mxGeometry x="273" y="567" width="112" height="31" as="geometry"/>
                </mxCell>
                <mxCell id="56" style="edgeStyle=orthogonalEdgeStyle;html=1;strokeColor=#d6b656;fontSize=17;flowAnimation=1;fillColor=#fff2cc;strokeWidth=2;" edge="1" parent="1" source="26">
                    <mxGeometry relative="1" as="geometry">
                        <mxPoint x="455.26098124186205" y="695.0687993367515" as="targetPoint"/>
                    </mxGeometry>
                </mxCell>
                <mxCell id="60" value="TimeUp" style="edgeLabel;html=1;align=center;verticalAlign=middle;resizable=0;points=[];fontSize=17;fontFamily=Verdana;" vertex="1" connectable="0" parent="56">
                    <mxGeometry x="0.0175" y="4" relative="1" as="geometry">
                        <mxPoint x="-65" y="4" as="offset"/>
                    </mxGeometry>
                </mxCell>
                <mxCell id="26" value="Timer" style="rounded=1;whiteSpace=wrap;html=1;fontSize=17;" vertex="1" parent="1">
                    <mxGeometry x="99" y="615" width="112" height="30" as="geometry"/>
                </mxCell>
                <mxCell id="57" style="edgeStyle=orthogonalEdgeStyle;html=1;strokeColor=#d6b656;fontSize=17;flowAnimation=1;fillColor=#fff2cc;strokeWidth=2;" edge="1" parent="1" source="27">
                    <mxGeometry relative="1" as="geometry">
                        <mxPoint x="411.2794545491538" y="697.3836085001628" as="targetPoint"/>
                    </mxGeometry>
                </mxCell>
                <mxCell id="61" value="No Questions" style="edgeLabel;html=1;align=center;verticalAlign=middle;resizable=0;points=[];fontSize=17;fontFamily=Verdana;" vertex="1" connectable="0" parent="57">
                    <mxGeometry x="0.0488" y="4" relative="1" as="geometry">
                        <mxPoint x="-21" y="3" as="offset"/>
                    </mxGeometry>
                </mxCell>
                <mxCell id="27" value="NextButton" style="rounded=1;whiteSpace=wrap;html=1;fontSize=17;" vertex="1" parent="1">
                    <mxGeometry x="99" y="662" width="112" height="30" as="geometry"/>
                </mxCell>
                <mxCell id="49" style="edgeStyle=entityRelationEdgeStyle;html=1;strokeColor=#B09500;fontSize=17;flowAnimation=1;fillColor=#e3c800;strokeWidth=4;" edge="1" parent="1" source="42" target="18">
                    <mxGeometry relative="1" as="geometry"/>
                </mxCell>
                <mxCell id="71" value="Loading" style="edgeLabel;html=1;align=center;verticalAlign=middle;resizable=0;points=[];fontSize=20;fontFamily=Verdana;" vertex="1" connectable="0" parent="49">
                    <mxGeometry x="-0.2025" y="-5" relative="1" as="geometry">
                        <mxPoint x="-22" y="-38" as="offset"/>
                    </mxGeometry>
                </mxCell>
                <mxCell id="52" style="edgeStyle=orthogonalEdgeStyle;html=1;strokeColor=#B20000;fontSize=17;flowAnimation=1;fillColor=#e51400;strokeWidth=5;" edge="1" parent="1" source="42">
                    <mxGeometry relative="1" as="geometry">
                        <mxPoint x="591" y="409" as="targetPoint"/>
                        <Array as="points">
                            <mxPoint x="739" y="125"/>
                            <mxPoint x="739" y="409"/>
                        </Array>
                    </mxGeometry>
                </mxCell>
                <mxCell id="72" value="Error" style="edgeLabel;html=1;align=center;verticalAlign=middle;resizable=0;points=[];fontSize=20;fontFamily=Verdana;" vertex="1" connectable="0" parent="52">
                    <mxGeometry x="-0.004" y="-4" relative="1" as="geometry">
                        <mxPoint x="2" y="-31" as="offset"/>
                    </mxGeometry>
                </mxCell>
                <mxCell id="53" style="edgeStyle=orthogonalEdgeStyle;html=1;strokeColor=#2D7600;fontSize=17;flowAnimation=1;fillColor=#60a917;strokeWidth=4;" edge="1" parent="1" source="42">
                    <mxGeometry relative="1" as="geometry">
                        <mxPoint x="595" y="460" as="targetPoint"/>
                        <Array as="points">
                            <mxPoint x="774" y="125"/>
                            <mxPoint x="774" y="460"/>
                        </Array>
                    </mxGeometry>
                </mxCell>
                <mxCell id="73" value="Success" style="edgeLabel;html=1;align=center;verticalAlign=middle;resizable=0;points=[];fontSize=20;fontFamily=Verdana;" vertex="1" connectable="0" parent="53">
                    <mxGeometry x="0.2046" y="3" relative="1" as="geometry">
                        <mxPoint x="3" y="-62" as="offset"/>
                    </mxGeometry>
                </mxCell>
                <mxCell id="42" value="FetchData" style="rounded=1;whiteSpace=wrap;html=1;fontSize=17;" vertex="1" parent="1">
                    <mxGeometry x="565" y="107.25" width="115" height="35.75" as="geometry"/>
                </mxCell>
                <mxCell id="58" value="FinishScreen" style="rounded=1;whiteSpace=wrap;html=1;fontSize=17;" vertex="1" parent="1">
                    <mxGeometry x="347" y="710" width="199" height="41" as="geometry"/>
                </mxCell>
            </root>
        </mxGraphModel>
    </diagram>
</mxfile>